<svg xmlns="http://www.w3.org/2000/svg" viewBox="0 0 800 280" role="img" aria-labelledby="title"><title id="title">一个输入通过腱索和柔顺结构组织多关节运动，接触使手形改变</title><defs><marker id="arrow" viewBox="0 0 10 10" refX="8" refY="5" markerWidth="6" markerHeight="6" orient="auto-start-reverse"><path d="M0 0L10 5L0 10" fill="#aa4d3e"/></marker></defs><style>text{font-family:'Segoe UI','Microsoft YaHei',sans-serif;fill:#292b29;font-size:22px}.small{font-size:13px;fill:#696d67}.accent{fill:#aa4d3e}.line{fill:none;stroke:#292b29;stroke-width:3;stroke-linecap:round;stroke-linejoin:round}.cable{fill:none;stroke:#aa4d3e;stroke-width:3;stroke-linecap:round}.soft{fill:none;stroke:#6b8070;stroke-width:3;stroke-linecap:round}.surface{fill:#e9e5dc;stroke:#d2cec3;stroke-width:1.5}</style>
<text x="34" y="35" class="small">02 / 同一闭合输入，两种接触条件</text><circle class="surface" cx="76" cy="144" r="29"/><text x="68" y="150">u</text><path class="cable" d="M107 144H176M176 144V89H214M176 144V199H214"/>
<g class="line"><path d="M265 66L330 104L366 154M265 136L330 149L365 197M265 211L329 211L365 244"/><circle cx="330" cy="104" r="7"/><circle cx="330" cy="149" r="7"/><circle cx="329" cy="211" r="7"/></g><path class="cable" d="M230 92L261 92M230 202L261 202" marker-end="url(#arrow)"/>
<text x="273" y="35">自由闭合</text><path d="M420 145H470" class="cable" marker-end="url(#arrow)"/><text x="418" y="179" class="small">加入接触</text>
<circle class="surface" cx="629" cy="145" r="48"/><g class="line"><path d="M518 61L582 87L639 97M518 137L574 138L581 146M518 218L580 205L636 193"/><circle cx="582" cy="87" r="7"/><circle cx="574" cy="138" r="7"/><circle cx="580" cy="205" r="7"/></g><g fill="#aa4d3e"><circle cx="639" cy="97" r="5"/><circle cx="581" cy="146" r="5"/><circle cx="636" cy="193" r="5"/></g><text x="604" y="150">物体</text><text x="565" y="35">受约束闭合</text><text x="35" y="266" class="small">概念示意 · 接触与弹性共同影响实际手形；不是 SoftHand 的走索或关节几何复刻</text></svg>
