<svg xmlns="http://www.w3.org/2000/svg" viewBox="0 0 800 280" role="img" aria-labelledby="title"><title id="title">腱传动概念图：电机通过腱索与滑轮将拉力传到关节</title><defs><marker id="arrow" viewBox="0 0 10 10" refX="8" refY="5" markerWidth="6" markerHeight="6" orient="auto-start-reverse"><path d="M0 0L10 5L0 10" fill="#aa4d3e"/></marker></defs><style>text{font-family:'Segoe UI','Microsoft YaHei',sans-serif;fill:#292b29;font-size:22px}.small{font-size:13px;fill:#696d67}.accent{fill:#aa4d3e}.line{fill:none;stroke:#292b29;stroke-width:3;stroke-linecap:round;stroke-linejoin:round}.cable{fill:none;stroke:#aa4d3e;stroke-width:3;stroke-linecap:round}.soft{fill:none;stroke:#6b8070;stroke-width:3;stroke-linecap:round}.surface{fill:#e9e5dc;stroke:#d2cec3;stroke-width:1.5}</style>
<text x="34" y="35" class="small">01 / 动力沿腱索传递</text><rect x="38" y="102" width="90" height="72" class="surface"/><path class="line" d="M46 104H126V176H46Z"/><text x="65" y="145">M</text><path class="line" d="M127 140H164"/><circle class="line" cx="186" cy="140" r="24"/><circle class="line" cx="352" cy="140" r="25"/><circle class="line" cx="514" cy="103" r="22"/><circle class="line" cx="647" cy="63" r="17"/>
<path d="M210 140H326M377 135L492 108M535 96L630 68M665 65L735 91" fill="none" stroke="#c1bbaf" stroke-width="18" stroke-linecap="round"/>
<path class="cable" d="M186 116H346Q359 113 375 119L506 79Q522 73 535 83L645 46Q659 46 666 61L728 82"/><path class="soft" d="M186 164H357Q376 164 377 146L523 126Q540 125 540 109L654 80L728 101"/>
<path class="cable" d="M247 115H283" marker-end="url(#arrow)"/><text x="51" y="226">执行器</text><text x="175" y="226">卷盘</text><text x="332" y="226">关节滑轮</text><text x="508" y="199" class="accent">腱索路径</text><text x="596" y="226">指端运动</text><text x="35" y="261" class="small">概念示意 · 走索数量、回复机构与关节约束依具体设计而异</text></svg>
